<svg xmlns="http://www.w3.org/2000/svg" width="32" height="33" viewBox="0 0 32 33" fill="none"><circle cx="13.375" cy="19.5879" r="12" stroke="url(#paint0_linear_681_888)" stroke-width="2"></circle><circle cx="13.375" cy="19.5879" r="4" stroke="url(#paint1_linear_681_888)" stroke-width="2"></circle><rect width="1.64247" height="19.9806" transform="matrix(-0.707107 -0.707107 -0.707107 0.707107 27.8264 5.91113)" fill="url(#paint2_linear_681_888)"></rect><rect width="1.64247" height="19.9806" transform="matrix(-0.707107 -0.707107 -0.707107 0.707107 26.6649 4.75)" fill="white"></rect><line x1="23.125" y1="9.58789" x2="23.125" y2="3.58789" stroke="url(#paint3_linear_681_888)" stroke-width="2"></line><line x1="26.125" y1="6.58789" x2="26.125" y2="0.587891" stroke="url(#paint4_linear_681_888)" stroke-width="2"></line><line x1="25.625" y1="6.08789" x2="31.625" y2="6.08789" stroke="url(#paint5_linear_681_888)" stroke-width="2"></line><line x1="22.625" y1="9.08789" x2="28.625" y2="9.08789" stroke="url(#paint6_linear_681_888)" stroke-width="2"></line><defs><linearGradient id="paint0_linear_681_888" x1="2.61445" y1="8.95897" x2="26.3087" y2="18.2176" gradientUnits="userSpaceOnUse"><stop stop-color="#94C11F"></stop><stop offset="1" stop-color="#078ED1"></stop></linearGradient><linearGradient id="paint1_linear_681_888" x1="9.23633" y1="15.4998" x2="18.3495" y2="19.0609" gradientUnits="userSpaceOnUse"><stop stop-color="#94C11F"></stop><stop offset="1" stop-color="#078ED1"></stop></linearGradient><linearGradient id="paint2_linear_681_888" x1="0.14147" y1="1.82214" x2="1.86505" y2="1.8775" gradientUnits="userSpaceOnUse"><stop stop-color="#94C11F"></stop><stop offset="1" stop-color="#078ED1"></stop></linearGradient><linearGradient id="paint3_linear_681_888" x1="24.2162" y1="9.07109" x2="26.4907" y2="8.10096" gradientUnits="userSpaceOnUse"><stop stop-color="#94C11F"></stop><stop offset="1" stop-color="#078ED1"></stop></linearGradient><linearGradient id="paint4_linear_681_888" x1="27.2162" y1="6.07109" x2="29.4907" y2="5.10096" gradientUnits="userSpaceOnUse"><stop stop-color="#94C11F"></stop><stop offset="1" stop-color="#078ED1"></stop></linearGradient><linearGradient id="paint5_linear_681_888" x1="26.1418" y1="7.17909" x2="27.1119" y2="9.4536" gradientUnits="userSpaceOnUse"><stop stop-color="#94C11F"></stop><stop offset="1" stop-color="#078ED1"></stop></linearGradient><linearGradient id="paint6_linear_681_888" x1="23.1418" y1="10.1791" x2="24.1119" y2="12.4536" gradientUnits="userSpaceOnUse"><stop stop-color="#94C11F"></stop><stop offset="1" stop-color="#078ED1"></stop></linearGradient></defs></svg>